Coordinates
version=1
nRows=14
nColumns=63
inDegrees=yes

Units are S.I. units (second, meters, Newtons, ...)
If the header above contains a line with 'inDegrees', this indicates whether rotational values are in degrees (yes) or radians (no).

endheader
time	pelvis_tilt	pelvis_list	pelvis_rotation	pelvis_tx	pelvis_ty	pelvis_tz	hip_flexion_r	hip_adduction_r	hip_rotation_r	knee_angle_r	knee_angle_r_beta	ankle_angle_r	subtalar_angle_r	mtp_angle_r	hip_flexion_l	hip_adduction_l	hip_rotation_l	knee_angle_l	knee_angle_l_beta	ankle_angle_l	subtalar_angle_l	mtp_angle_l	L5_S1_Flex_Ext	L5_S1_Lat_Bending	L5_S1_axial_rotation	L4_L5_Flex_Ext	L4_L5_Lat_Bending	L4_L5_axial_rotation	L3_L4_Flex_Ext	L3_L4_Lat_Bending	L3_L4_axial_rotation	L2_L3_Flex_Ext	L2_L3_Lat_Bending	L2_L3_axial_rotation	L1_L2_Flex_Ext	L1_L2_Lat_Bending	L1_L2_axial_rotation	L1_T12_Flex_Ext	L1_T12_Lat_Bending	L1_T12_axial_rotation	Abs_r3	Abs_r2	Abs_r1	Abs_t1	Abs_t2	neck_flexion	neck_bending	neck_rotation	arm_flex_r	arm_add_r	arm_rot_r	elbow_flex_r	pro_sup_r	wrist_flex_r	wrist_dev_r	arm_flex_l	arm_add_l	arm_rot_l	elbow_flex_l	pro_sup_l	wrist_flex_l	wrist_dev_l
3.825000	14.231585	-2.984371	122.561165	0.167173	0.679044	0.889631	18.179811	1.772102	-24.796643	13.235229	0.230998	33.215244	4.859120	0.000000	27.856154	-2.377891	10.662796	20.612670	0.359759	36.156045	15.177358	0.000000	-0.068355	-1.759726	2.053143	-0.126941	-2.340435	2.181464	-0.112300	-4.278597	2.181464	-0.078122	-4.278597	1.796500	-0.063474	-3.588433	1.668178	-0.039058	-2.725815	1.539857	-0.488250	-19.906368	11.418963	0.000000	0.000000	13.680233	4.632652	-2.145639	44.031541	-6.100110	-330.641369	140.815341	63.268778	-19.716743	-8.688060	9.218377	-15.612889	12.940798	28.715407	84.030704	-11.988681	-0.203053
3.850000	13.181972	-2.811347	121.494627	0.167252	0.682210	0.885399	17.266219	1.420834	-23.961062	13.129612	0.229155	33.075190	4.789167	0.000000	26.467312	-2.181266	9.655119	20.031838	0.349622	35.884007	15.056118	0.000000	-0.077173	-1.802248	2.072490	-0.143318	-2.396990	2.202021	-0.126788	-4.381985	2.202021	-0.088201	-4.381985	1.813429	-0.071663	-3.675144	1.683898	-0.044097	-2.791682	1.554368	-0.551240	-20.387388	11.526568	0.000000	0.000000	13.778014	4.850538	-2.272190	43.825210	-5.393745	-328.777789	140.385700	65.160010	-23.058472	-7.833425	8.789015	-16.213912	14.061270	28.280077	84.340655	-12.678352	0.601892
3.875000	12.054314	-2.652289	120.306303	0.167608	0.685495	0.881025	16.354933	1.023143	-22.877430	13.054762	0.227849	32.901241	4.579535	0.000000	25.018654	-1.951685	8.453170	19.414554	0.338848	35.559088	14.945644	0.000000	-0.086714	-1.850585	2.131639	-0.161037	-2.461278	2.264867	-0.142463	-4.499512	2.264867	-0.099106	-4.499512	1.865184	-0.080523	-3.773712	1.731957	-0.049549	-2.866556	1.598729	-0.619392	-20.934184	11.855537	0.000000	0.000000	13.824873	5.147509	-2.350566	43.911791	-4.772725	-326.994048	140.048696	68.166208	-27.644650	-6.870522	8.563615	-16.901060	16.075478	27.584617	84.595586	-13.546396	1.220214
3.900000	10.951468	-2.470770	119.160327	0.168035	0.688699	0.876759	15.456443	0.626608	-21.741618	12.991741	0.226749	32.689447	4.279193	0.000000	23.599692	-1.706047	7.236461	18.832456	0.328688	35.208508	14.856342	0.000000	-0.095381	-1.893373	2.198405	-0.177133	-2.518187	2.335805	-0.156702	-4.603548	2.335805	-0.109011	-4.603548	1.923604	-0.088571	-3.860967	1.786204	-0.054501	-2.932835	1.648804	-0.681299	-21.418219	12.226869	0.000000	0.000000	13.841080	5.508289	-2.377163	44.315948	-4.338105	-325.284739	139.795176	71.529916	-33.214476	-6.376108	8.375693	-17.551032	18.106339	26.814939	84.877652	-14.323076	1.718582
3.925000	9.917689	-2.247538	118.077045	0.168500	0.691679	0.872837	14.597020	0.262098	-20.571010	12.971212	0.226390	32.451938	3.890456	0.000000	22.252115	-1.474924	6.036304	18.331108	0.319938	34.854852	14.776437	0.000000	-0.106022	-1.925421	2.272334	-0.196894	-2.560810	2.414354	-0.174184	-4.681468	2.414354	-0.121173	-4.681468	1.988292	-0.098452	-3.926318	1.846271	-0.060581	-2.982477	1.704250	-0.757307	-21.780746	12.638037	0.000000	0.000000	13.860729	5.866095	-2.318581	44.998200	-4.170097	-323.729500	139.645613	74.214172	-39.057832	-6.809033	8.233585	-18.118657	20.112907	26.033188	85.126336	-14.994497	2.146145
3.950000	8.972298	-1.984948	117.079664	0.168970	0.694370	0.869409	13.797250	-0.066764	-19.368740	12.998147	0.226860	32.188438	3.420562	0.000000	21.009584	-1.256554	4.876300	17.926959	0.312884	34.511244	14.698977	0.000000	-0.117981	-1.948244	2.362624	-0.219103	-2.591165	2.510288	-0.193831	-4.736961	2.510288	-0.134841	-4.736961	2.067296	-0.109557	-3.972860	1.919632	-0.067414	-3.017830	1.771968	-0.842727	-22.038929	13.140208	0.000000	0.000000	13.861137	6.267199	-2.320755	45.828877	-4.316452	-322.430502	139.624978	76.154340	-44.764192	-7.954364	8.210408	-18.618109	22.323855	25.236650	85.257933	-15.536419	2.527700
3.975000	8.152148	-1.673931	116.229110	0.169386	0.696677	0.866630	13.061943	-0.336562	-18.225589	13.068563	0.228089	31.904401	2.903980	0.000000	19.910928	-1.070709	3.819836	17.654483	0.308129	34.207596	14.641075	0.000000	-0.131492	-1.958796	2.448945	-0.244194	-2.605199	2.602004	-0.216028	-4.762617	2.602004	-0.150282	-4.762617	2.142826	-0.122103	-3.994377	1.989767	-0.075134	-3.034175	1.836708	-0.939233	-22.158294	13.620295	0.000000	0.000000	13.868873	6.679326	-2.302571	46.784842	-4.690749	-321.280102	139.676499	77.691058	-50.504185	-9.686408	8.175316	-19.000375	24.260282	24.605829	85.224698	-16.001483	2.941468
4.000000	7.425806	-1.309313	115.546812	0.169750	0.698670	0.864604	12.385728	-0.586872	-17.194632	13.221079	0.230751	31.620649	2.373608	0.000000	18.925482	-0.890457	2.911863	17.484454	0.305161	33.918880	14.574879	0.000000	-0.148092	-1.961822	2.508330	-0.275021	-2.609223	2.665101	-0.243300	-4.769974	2.665101	-0.169254	-4.769974	2.194789	-0.137518	-4.000548	2.038018	-0.084620	-3.038862	1.881248	-1.057804	-22.192524	13.950580	0.000000	0.000000	13.806157	7.043739	-2.204561	48.028178	-5.146733	-319.187616	139.214072	78.825995	-59.303480	-14.959826	8.040681	-19.270913	25.566207	24.201896	85.024846	-16.368921	3.409679
4.025000	6.856704	-0.911224	115.008097	0.169993	0.700129	0.863321	11.826238	-0.766398	-16.244720	13.455931	0.234850	31.378696	1.800801	0.000000	18.117099	-0.765687	2.167403	17.457166	0.304685	33.732198	14.503125	0.000000	-0.165145	-1.952179	2.580569	-0.306691	-2.596397	2.741855	-0.271317	-4.746527	2.741855	-0.188745	-4.746527	2.257998	-0.153354	-3.980882	2.096713	-0.094364	-3.023925	1.935427	-1.179616	-22.083434	14.352353	0.000000	0.000000	13.758455	7.183337	-2.166199	49.233923	-5.878956	-317.825509	139.127673	79.514959	-65.768427	-18.814127	7.961324	-19.391050	26.621639	23.909345	84.540083	-16.642065	3.862980
4.050000	6.438057	-0.511672	114.599375	0.170098	0.701071	0.862651	11.398937	-0.893527	-15.430989	13.764298	0.240232	31.250501	1.271080	0.000000	17.482823	-0.702138	1.555715	17.537302	0.306084	33.668803	14.480447	0.000000	-0.179633	-1.933885	2.672929	-0.333597	-2.572068	2.839987	-0.295119	-4.702049	2.839987	-0.205303	-4.702049	2.338812	-0.166807	-3.943579	2.171754	-0.102642	-2.995588	2.004696	-1.283101	-21.876498	14.866027	0.000000	0.000000	13.715705	7.106007	-2.131189	50.337957	-6.798957	-317.391598	139.404847	80.403835	-69.577351	-20.650837	7.934976	-19.353267	27.284088	23.706725	84.111574	-16.827225	4.372772
4.075000	6.154497	-0.120651	114.274926	0.170058	0.701575	0.862447	11.104556	-0.972599	-14.721381	14.139522	0.246781	31.262644	0.801070	0.000000	16.990715	-0.695311	1.054056	17.678564	0.308549	33.745339	14.489970	0.000000	-0.190255	-1.908308	2.790538	-0.353322	-2.538050	2.964947	-0.312570	-4.639860	2.964947	-0.217442	-4.639860	2.441721	-0.176671	-3.891422	2.267312	-0.108712	-2.955969	2.092904	-1.358971	-21.587163	15.520137	0.000000	0.000000	13.642929	6.820041	-2.066450	51.291673	-7.783604	-317.722810	140.015221	81.838775	-70.838276	-20.385657	8.000270	-19.201192	27.852324	23.555649	83.776839	-16.922565	4.913225
4.100000	5.971478	0.264556	114.017207	0.169878	0.701811	0.862549	10.902355	-1.016885	-14.116481	14.550921	0.253961	31.404654	0.410913	0.000000	16.583301	-0.729731	0.659161	17.820452	0.311026	33.946236	14.549324	0.000000	-0.197723	-1.878064	2.920077	-0.367191	-2.497825	3.102582	-0.324839	-4.566325	3.102582	-0.225977	-4.566325	2.555067	-0.183605	-3.829748	2.372563	-0.112979	-2.909121	2.190058	-1.412315	-21.245036	16.240593	0.000000	0.000000	13.459502	6.482976	-1.921144	52.075904	-8.645988	-318.470479	140.785703	83.940619	-69.809517	-18.481126	8.098697	-18.974706	28.271875	23.483364	83.521174	-16.901499	5.442722
4.125000	5.850355	0.642033	113.817750	0.169568	0.701934	0.862825	10.751593	-1.045826	-13.613240	14.959135	0.261086	31.641091	0.111553	0.000000	16.214508	-0.774208	0.390366	17.912392	0.312630	34.228326	14.640491	0.000000	-0.201869	-1.846502	3.044111	-0.374890	-2.455848	3.234368	-0.331650	-4.489586	3.234368	-0.230716	-4.489586	2.663597	-0.187455	-3.765388	2.473340	-0.115348	-2.860232	2.283083	-1.441927	-20.888003	16.930433	0.000000	0.000000	13.084319	6.259080	-1.739459	52.701982	-9.253036	-319.398699	141.576501	86.797998	-66.756537	-15.452053	8.150443	-18.733611	28.487154	23.537918	83.357439	-16.771132	5.867724
4.150000	5.761751	1.011422	113.662388	0.169118	0.702029	0.863161	10.624841	-1.076296	-13.226499	15.357702	0.268042	31.941201	-0.081184	0.000000	15.850126	-0.813578	0.219212	17.925318	0.312856	34.567877	14.787967	0.000000	-0.203088	-1.813678	3.145666	-0.377155	-2.412192	3.342271	-0.333653	-4.409777	3.342271	-0.232109	-4.409777	2.752458	-0.188588	-3.698453	2.555854	-0.116044	-2.809387	2.359250	-1.450637	-20.516690	17.495253	0.000000	0.000000	12.504281	6.298411	-1.452719	53.137582	-9.538876	-320.273486	142.322142	89.946317	-62.099004	-11.906241	8.067987	-18.473361	28.310060	23.787650	83.333039	-16.546124	6.176301
